<svg id="Component_26_1" data-name="Component 26 – 1" xmlns="http://www.w3.org/2000/svg" width="95" height="95" viewBox="0 0 95 95">
  <path id="Icon_awesome-paper-plane" data-name="Icon awesome-paper-plane" d="M33.469.225.879,19.027a1.689,1.689,0,0,0,.155,3.038L8.508,25.2l20.2-17.8a.422.422,0,0,1,.6.584L12.375,28.617v5.66a1.687,1.687,0,0,0,2.988,1.111l4.465-5.435,8.761,3.67a1.692,1.692,0,0,0,2.32-1.28L35.972,1.969A1.688,1.688,0,0,0,33.469.225Z" transform="translate(29.501 29.499)" fill="#43be98"/>
  <g id="Ellipse_11" data-name="Ellipse 11" fill="none" stroke="#fff" stroke-width="1">
    <circle cx="47.5" cy="47.5" r="47.5" stroke="none"/>
    <circle cx="47.5" cy="47.5" r="47" fill="none"/>
  </g>
</svg>
