<svg xmlns="http://www.w3.org/2000/svg" width="350.106" height="393.01" viewBox="0 0 350.106 393.01">
  <g id="book" transform="matrix(0.966, -0.259, 0.259, 0.966, -269.326, -922.88)">
    <path id="Path_65" data-name="Path 65" d="M3,8V205.194a30.333,30.333,0,0,0,30.338,30.338H245.7a30.329,30.329,0,0,0,30.338-30.338V8Z" transform="translate(0 1127.582)" fill="#16a085"/>
    <path id="Path_66" data-name="Path 66" d="M3,1035.4v197.194a30.381,30.381,0,0,0,30.338,30.337H245.7a30.378,30.378,0,0,0,30.338-30.337V1035.4Z" transform="translate(0 85.013)" fill="#ecf0f1"/>
    <path id="Path_67" data-name="Path 67" d="M3,1034.4v197.195a30.381,30.381,0,0,0,30.338,30.337H245.7a30.378,30.378,0,0,0,30.338-30.337V1034.4Z" transform="translate(0 70.844)" fill="#bdc3c7"/>
    <path id="Path_68" data-name="Path 68" d="M3,1033.4v197.193a30.383,30.383,0,0,0,30.338,30.339H245.7a30.379,30.379,0,0,0,30.338-30.339V1033.4Z" transform="translate(0 56.675)" fill="#ecf0f1"/>
    <path id="Path_69" data-name="Path 69" d="M33.338,1A30.337,30.337,0,0,0,3,31.338V304.376a30.333,30.333,0,0,0,30.338,30.338H63.675V319.544H40.922a22.753,22.753,0,1,1,0-45.506H245.7A30.329,30.329,0,0,0,276.038,243.7V31.338A30.333,30.333,0,0,0,245.7,1H33.338Z" transform="translate(0 1028.4)" fill="#16a085"/>
    <path id="Path_70" data-name="Path 70" d="M8,1V274.038H174.857A30.329,30.329,0,0,0,205.194,243.7V31.338A30.333,30.333,0,0,0,174.857,1H8Z" transform="translate(70.844 1028.4)" fill="#1abc9c"/>
  </g>
</svg>
