<svg xmlns="http://www.w3.org/2000/svg" width="127.594" height="155.376" viewBox="0 0 127.594 155.376">
  <g id="Calculator" transform="translate(18.381 -2.085) rotate(9)">
    <path id="Path_71" data-name="Path 71" d="M10.309,2H98.678a5.949,5.949,0,0,1,5.949,5.949V129.74a5.949,5.949,0,0,1-5.949,5.949H10.309A5.949,5.949,0,0,1,4.36,129.74V7.949A5.949,5.949,0,0,1,10.309,2" transform="translate(2.842 2.842)" fill="#9293a5"/>
    <path id="Path_72" data-name="Path 72" d="M15,2V135.689H38.128a5.949,5.949,0,0,0,5.949-5.949V7.949A5.949,5.949,0,0,0,38.195,2Z" transform="translate(63.325 2.842)" fill="#6f7188"/>
    <rect id="Rectangle_121" data-name="Rectangle 121" width="76.47" height="62.433" transform="translate(19.101 63.866)" fill="#eae2f9"/>
    <rect id="Rectangle_122" data-name="Rectangle 122" width="76.47" height="31.484" transform="translate(19.101 18.211)" fill="#eae2f9"/>
    <path id="Path_88" data-name="Path 88" d="M0,0H17.179V62.433H0Z" transform="translate(78.392 63.866)" fill="#43be98"/>
    <rect id="Rectangle_124" data-name="Rectangle 124" width="17.179" height="31.484" transform="translate(78.392 18.211)" fill="#c0c3ee"/>
    <path id="Path_73" data-name="Path 73" d="M13.151,141.873H101.52a9.291,9.291,0,0,0,9.291-9.291V10.791A9.291,9.291,0,0,0,101.52,1.5H13.151A9.358,9.358,0,0,0,3.86,10.791V132.582a9.291,9.291,0,0,0,9.291,9.291ZM10.544,10.791a2.674,2.674,0,0,1,2.607-2.607H101.52a2.607,2.607,0,0,1,2.607,2.607V132.582a2.607,2.607,0,0,1-2.607,2.607H13.151a2.674,2.674,0,0,1-2.607-2.607Z" transform="translate(0)"/>
    <path id="Path_74" data-name="Path 74" d="M8.982,79.447h76.47A3.342,3.342,0,0,0,88.795,76.1V13.672a3.342,3.342,0,0,0-3.342-3.342H8.982A3.342,3.342,0,0,0,5.64,13.672V76.1A3.342,3.342,0,0,0,8.982,79.447ZM71.616,17.014H82.11v25.6H71.616Zm0,32.286H82.11V72.763H71.616ZM52.3,17.014H64.931V31.386H52.3Zm0,21.056H64.931V51.439H52.3Zm0,20.053H64.931V72.5H52.3ZM32.244,16.747H45.613V31.119H32.244Zm0,21.056H45.613V51.172H32.244Zm0,20.053H45.613V72.228H32.244ZM12.324,17.014H25.292V31.386H12.324Zm0,21.056H25.292V51.439H12.324Zm0,20.053H25.292V72.5H12.324Z" transform="translate(10.118 50.194)"/>
    <path id="Path_75" data-name="Path 75" d="M8.982,41.668h76.47a3.342,3.342,0,0,0,3.342-3.342V6.842A3.342,3.342,0,0,0,85.452,3.5H8.982A3.342,3.342,0,0,0,5.64,6.842V38.326A3.342,3.342,0,0,0,8.982,41.668Zm3.342-31.484H82.11v24.8H12.324Z" transform="translate(10.118 11.369)"/>
    <path id="Path_76" data-name="Path 76" d="M21.391,6.77H17.982a3.342,3.342,0,0,0,0,6.684h3.409a3.342,3.342,0,0,0,3.342-3.342A3.409,3.409,0,0,0,21.391,6.77Z" transform="translate(61.278 29.957)"/>
  </g>
</svg>
