<svg id="checkmark_complete" xmlns="http://www.w3.org/2000/svg" width="18.062" height="18.062" viewBox="0 0 18.062 18.062">
  <path id="Path_18" data-name="Path 18" d="M32.911,30.407l-2.9,3.475L29,32.665a1.128,1.128,0,0,0-1.733,1.444l1.881,2.258a1.127,1.127,0,0,0,1.733,0l3.764-4.516a1.129,1.129,0,1,0-1.733-1.446Z" transform="translate(-21.924 -24.357)" fill="#fff"/>
  <path id="Path_19" data-name="Path 19" d="M9.031,0a9.031,9.031,0,1,0,9.031,9.031A9.031,9.031,0,0,0,9.031,0Zm0,15.8A6.773,6.773,0,1,1,15.8,9.031,6.773,6.773,0,0,1,9.031,15.8Z" fill="#fff"/>
</svg>
