<svg xmlns="http://www.w3.org/2000/svg" width="124.157" height="74.345" viewBox="0 0 124.157 74.345">
  <g id="Icon_ionic-ios-code" data-name="Icon ionic-ios-code" transform="translate(-4.5 -9.914)">
    <path id="Path_7" data-name="Path 7" d="M29.389,10.464a2.006,2.006,0,0,0-1.325-.55,1.944,1.944,0,0,0-1.325.55L22.277,14.73a1.88,1.88,0,0,0,0,2.78L53.244,47.087,22.277,76.663a1.88,1.88,0,0,0,0,2.78l4.461,4.267a1.944,1.944,0,0,0,1.325.55,1.886,1.886,0,0,0,1.325-.55L66.3,48.477a1.88,1.88,0,0,0,0-2.78Z" transform="translate(61.74)" fill="#fff"/>
    <path id="Path_8" data-name="Path 8" d="M49.754,16.12a1.911,1.911,0,0,0-.614-1.39l-4.461-4.267a2.006,2.006,0,0,0-1.325-.55,1.944,1.944,0,0,0-1.325.55L5.114,45.7a1.88,1.88,0,0,0,0,2.78L42.028,83.71a2.006,2.006,0,0,0,1.325.55,1.886,1.886,0,0,0,1.325-.55l4.461-4.267a1.88,1.88,0,0,0,0-2.78L18.173,47.087,49.14,17.51A1.911,1.911,0,0,0,49.754,16.12Z" transform="translate(0)" fill="#fff"/>
  </g>
</svg>
