<svg xmlns="http://www.w3.org/2000/svg" width="85.17" height="95.186" viewBox="0 0 85.17 95.186">
  <path id="design" d="M21.311,65.416a10.6,10.6,0,0,1-6.757-7.248L0,9.114,2.292,6.54,25.71,32.851a9.186,9.186,0,0,0-.749,3.607c0,4.647,3.353,8.413,7.488,8.413s7.488-3.767,7.488-8.413-3.353-8.413-7.488-8.413a6.755,6.755,0,0,0-3.211.841L5.821,2.575,8.112,0,51.773,16.352a10.756,10.756,0,0,1,6.451,7.591L64.9,50.48,44.931,72.916ZM77.683,76.743,68.305,87.279a6.925,6.925,0,0,1-10.595,0l-8.822-9.912L68.861,54.927l8.822,9.912a9.17,9.17,0,0,1,0,11.9Z" transform="translate(2.792 2.942)" fill="none" stroke="#fff" stroke-width="5"/>
</svg>
