<svg xmlns="http://www.w3.org/2000/svg" width="375.56" height="420.398" viewBox="0 0 375.56 420.398">
  <g id="diary" transform="matrix(0.996, -0.087, 0.087, 0.996, -269.632, -142.412)">
    <path id="Path_89" data-name="Path 89" d="M924.855,588.107H675.979A21.184,21.184,0,0,1,654.8,566.922V213.4A21.208,21.208,0,0,0,640,233.6V586.881a21.208,21.208,0,0,0,21.208,21.208H910.084a21.184,21.184,0,0,0,21.184-20.969A20.951,20.951,0,0,1,924.855,588.107Z" transform="translate(-335.362 -16.565)" fill="#f4a93f"/>
    <path id="Path_90" data-name="Path 90" d="M697.691,209.3H661.208A21.184,21.184,0,0,0,640,230.484V583.766a21.208,21.208,0,0,0,21.208,21.208h36.483Z" transform="translate(-336.372 -13.45)" fill="#67baeb"/>
    <path id="Path_91" data-name="Path 91" d="M675.979,588.107A21.184,21.184,0,0,1,654.8,566.922V213.4A21.208,21.208,0,0,0,640,233.6V586.881a21.208,21.208,0,0,0,21.208,21.208h36.483V588.107Z" transform="translate(-336.372 -16.565)" fill="#46a1f8"/>
    <path id="Path_92" data-name="Path 92" d="M586.217,482.482H546.491a14.291,14.291,0,0,1,0-28.582h39.726a14.291,14.291,0,0,1,0,28.582Z" transform="translate(-254.463 -199.302)" fill="#4d4c78"/>
    <path id="Path_93" data-name="Path 93" d="M586.217,828.881H546.491a14.291,14.291,0,1,1,0-28.581h39.726a14.291,14.291,0,1,1,0,28.581Z" transform="translate(-254.463 -462.503)" fill="#4d4c78"/>
    <path id="Path_94" data-name="Path 94" d="M586.217,1175.281H546.491a14.291,14.291,0,0,1,0-28.582h39.726a14.291,14.291,0,0,1,0,28.582Z" transform="translate(-254.463 -725.704)" fill="#4d4c78"/>
    <path id="Path_95" data-name="Path 95" d="M586.217,1521.681H546.491a14.291,14.291,0,1,1,0-28.581h39.726a14.291,14.291,0,1,1,0,28.581Z" transform="translate(-254.463 -988.906)" fill="#4d4c78"/>
    <path id="Path_96" data-name="Path 96" d="M597.713,473.518H557.987A14.315,14.315,0,0,1,543.7,459.228a13.976,13.976,0,0,1,.841-4.828,14.291,14.291,0,0,0,1.874,28.461h39.726a14.29,14.29,0,0,0,13.45-9.487A12.078,12.078,0,0,1,597.713,473.518Z" transform="translate(-254.383 -199.682)" fill="#323150"/>
    <path id="Path_97" data-name="Path 97" d="M597.713,819.918H557.987A14.315,14.315,0,0,1,543.7,805.627a13.976,13.976,0,0,1,.841-4.828,14.291,14.291,0,0,0,1.873,28.461h39.726a14.291,14.291,0,0,0,13.45-9.487A12.1,12.1,0,0,1,597.713,819.918Z" transform="translate(-254.383 -462.883)" fill="#323150"/>
    <path id="Path_98" data-name="Path 98" d="M597.714,1166.319H557.988a14.315,14.315,0,0,1-14.291-14.291,14.071,14.071,0,0,1,.841-4.828,14.291,14.291,0,0,0,1.873,28.461h39.726a14.315,14.315,0,0,0,13.45-9.463A16.127,16.127,0,0,1,597.714,1166.319Z" transform="translate(-254.384 -726.085)" fill="#323150"/>
    <path id="Path_99" data-name="Path 99" d="M597.714,1512.719H557.988a14.315,14.315,0,0,1-14.291-14.291,14.066,14.066,0,0,1,.841-4.828,14.291,14.291,0,0,0,1.873,28.461h39.726a14.314,14.314,0,0,0,13.45-9.463,16.017,16.017,0,0,1-1.873.12Z" transform="translate(-254.384 -989.286)" fill="#323150"/>
    <path id="Path_100" data-name="Path 100" d="M1159.433,434.207H1020.1a4.8,4.8,0,0,1,0-9.607h139.329a4.8,4.8,0,1,1,0,9.607Z" transform="translate(-621.532 -177.039)" fill="#4d4c78"/>
    <path id="Path_101" data-name="Path 101" d="M1128.738,599.307H1020.1a4.8,4.8,0,0,1,0-9.607h108.634a4.8,4.8,0,1,1,0,9.607Z" transform="translate(-621.532 -302.485)" fill="#4d4c78"/>
    <rect id="Rectangle_126" data-name="Rectangle 126" height="20.399" transform="translate(250.212 233.75)" fill="#231f20"/>
    <path id="Rectangle_138" data-name="Rectangle 138" d="M0,0H214.019a20,20,0,0,1,20,20V377.883a0,0,0,0,1,0,0H0a0,0,0,0,1,0,0V0A0,0,0,0,1,0,0Z" transform="translate(360.842 195)" fill="#f4c23f"/>
    <rect id="Rectangle_131" data-name="Rectangle 131" width="9.511" height="163.981" rx="4.756" transform="translate(351.808 289.761)" fill="#83d0fb"/>
    <rect id="Rectangle_132" data-name="Rectangle 132" width="32.761" height="10.909" rx="5.455" transform="translate(304.637 254.598)" fill="#64639c"/>
    <rect id="Rectangle_133" data-name="Rectangle 133" width="32.761" height="10.909" rx="5.455" transform="translate(304.637 337.797)" fill="#64639c"/>
    <rect id="Rectangle_134" data-name="Rectangle 134" width="32.761" height="10.909" rx="5.455" transform="translate(304.637 420.996)" fill="#64639c"/>
    <rect id="Rectangle_135" data-name="Rectangle 135" width="32.761" height="10.909" rx="5.455" transform="translate(304.637 504.194)" fill="#64639c"/>
    <rect id="Rectangle_136" data-name="Rectangle 136" width="15.732" height="228.876" rx="7.866" transform="translate(579.164 289.761)" fill="#fad564"/>
    <rect id="Rectangle_137" data-name="Rectangle 137" width="96.265" height="11.512" rx="5.756" transform="translate(467.095 195.85)" fill="#fad564"/>
  </g>
</svg>
