<svg xmlns="http://www.w3.org/2000/svg" width="136.036" height="127.115" viewBox="0 0 136.036 127.115">
  <g id="loud_speaker" transform="translate(2.805 -46.742)">
    <path id="XMLID_5_" d="M218.2,79.912v40.226l63.209,29.71c5.207,2.461,11.826-.522,11.826-5.345V55.523c0-4.8-6.587-7.782-11.826-5.345Z" transform="translate(-177.749 0)" fill="none" stroke="#fff" stroke-width="5"/>
    <path id="XMLID_4_" d="M32.544,173.231A13.16,13.16,0,0,0,19.4,186.375v23.872a13.16,13.16,0,0,0,13.144,13.144H77.15V173.2H32.544Z" transform="translate(-9.197 -98.011)" fill="none" stroke="#fff" stroke-width="5"/>
    <path id="XMLID_3_" d="M467.9,184.1v43.446a25.718,25.718,0,0,0,0-43.446Z" transform="translate(-349.121 -105.529)" fill="none" stroke="#fff" stroke-width="5"/>
    <path id="XMLID_2_" d="M7.349,214.2A1.339,1.339,0,0,0,6,215.549v23.182H16.509V214.2Z" transform="translate(-6.305 -126.446)" fill="none" stroke="#fff" stroke-width="5"/>
    <path id="XMLID_1_" d="M105.515,311.48s-8.25,18.445,9.944,40.278a3.106,3.106,0,0,1-2.415,5.082H93.563a4,4,0,0,1-3.513-2.07c-3.576-6.525-13.363-27.354-4.235-46.269" transform="translate(-65.519 -185.483)" fill="none" stroke="#fff" stroke-width="5"/>
  </g>
</svg>
