<svg id="monitor_browser" xmlns="http://www.w3.org/2000/svg" width="380.004" height="309.07" viewBox="0 0 380.004 309.07">
  <path id="_383103_monitor_icon" data-name="383103_monitor_icon" d="M359.737,0H20.267A20.268,20.268,0,0,0,0,20.267v228a20.268,20.268,0,0,0,20.267,20.267H131.735V288.8h-35A20.7,20.7,0,0,0,76.051,309.07H298.886A20.707,20.707,0,0,0,278.2,288.8H248.269V268.536H359.737A20.268,20.268,0,0,0,380,248.269v-228A20.268,20.268,0,0,0,359.737,0ZM364.8,238.136H15.2V20.267H364.8Z" fill="#231f20"/>
  <rect id="Rectangle_139" data-name="Rectangle 139" width="350" height="19" transform="translate(15 20.07)" fill="#2c2c2c"/>
  <rect id="Rectangle_140" data-name="Rectangle 140" width="350" height="199" transform="translate(15 39.07)" fill="#fff"/>
  <g id="_7423888_react_react_native_icon" data-name="7423888_react_react native_icon" transform="translate(110.316 73.443)">
    <circle id="Ellipse_18" data-name="Ellipse 18" cx="11.56" cy="11.56" r="11.56" transform="translate(68.125 47.505)" fill="#61dafb"/>
    <path id="Path_64" data-name="Path 64" d="M79.685,101.577c9.074,8.826,18.024,14.046,25.234,14.046a12.49,12.49,0,0,0,6.464-1.616c6.464-3.729,8.826-13.052,6.588-26.352-.373-2.362-.87-4.724-1.492-7.21,2.486-.746,4.724-1.492,6.961-2.237,12.555-4.848,19.516-11.56,19.516-18.894,0-7.458-6.961-14.171-19.516-18.894a57.022,57.022,0,0,0-6.961-2.237c.622-2.486,1.119-4.848,1.492-7.21,2.113-13.549-.249-23-6.712-26.725a12.49,12.49,0,0,0-6.464-1.616c-7.085,0-16.159,5.221-25.234,14.046-8.95-8.826-17.9-14.046-25.109-14.046a12.49,12.49,0,0,0-6.464,1.616C41.524,7.976,39.162,17.3,41.4,30.6c.373,2.362.87,4.724,1.492,7.21-2.486.746-4.724,1.492-6.961,2.237-12.555,4.848-19.516,11.56-19.516,18.894,0,7.458,6.961,14.171,19.516,18.894a57.024,57.024,0,0,0,6.961,2.237c-.622,2.486-1.119,4.848-1.492,7.21-2.113,13.3.249,22.748,6.588,26.352a12.49,12.49,0,0,0,6.464,1.616C61.661,115.5,70.611,110.278,79.685,101.577ZM72.724,84.8c2.237.124,4.6.124,6.961.124s4.724,0,6.961-.124c-2.237,2.983-4.6,5.718-6.961,8.328C77.324,90.514,74.962,87.779,72.724,84.8Zm-15.414-12.8c1.243,2.113,2.362,4.1,3.729,6.091-3.853-.5-7.458-1.119-10.939-1.865,1.119-3.356,2.362-6.837,3.853-10.317C54.949,67.891,56.068,70,57.311,71.993ZM50.1,42.036c3.48-.746,7.085-1.367,10.939-1.865-1.243,1.989-2.486,3.978-3.729,6.091s-2.362,4.1-3.356,6.215A83.1,83.1,0,0,1,50.1,42.036Zm6.837,17.03c1.616-3.356,3.356-6.712,5.345-10.069,1.865-3.232,3.978-6.464,6.091-9.7,3.729-.249,7.458-.373,11.312-.373,3.978,0,7.707.124,11.312.373,2.237,3.232,4.226,6.464,6.091,9.7,1.989,3.356,3.729,6.712,5.345,10.069-1.616,3.356-3.356,6.712-5.345,10.069C95.223,72.366,93.11,75.6,91,78.829c-3.729.249-7.458.373-11.312.373-3.978,0-7.707-.124-11.312-.373-2.237-3.232-4.226-6.464-6.091-9.7C60.294,65.777,58.554,62.421,56.938,59.065Zm48.6-6.712-3.356-6.215c-1.243-2.113-2.362-4.1-3.729-6.091,3.853.5,7.458,1.119,10.939,1.865C108.275,45.392,107.032,48.872,105.54,52.353Zm0,13.425c1.492,3.48,2.735,6.961,3.853,10.317-3.48.746-7.085,1.367-10.939,1.865,1.243-1.989,2.486-3.978,3.729-6.091C103.3,70,104.422,67.891,105.54,65.777Zm2.859,43.133a6.745,6.745,0,0,1-3.6.87c-6.091,0-13.673-4.972-21.132-12.43A130.143,130.143,0,0,0,94.229,84.3a113.843,113.843,0,0,0,16.657-2.61,64.251,64.251,0,0,1,1.367,6.712C113.993,98.966,112.626,106.549,108.4,108.911ZM114.863,43.4c13.922,3.978,22.25,10.069,22.25,15.662,0,4.848-5.718,9.7-15.787,13.549-1.989.746-4.226,1.492-6.464,2.113a130.646,130.646,0,0,0-6.091-15.662A112.586,112.586,0,0,0,114.863,43.4ZM104.919,8.349a7.041,7.041,0,0,1,3.6.87c4.1,2.362,5.594,9.82,3.853,20.51-.373,2.113-.87,4.351-1.367,6.712a161.315,161.315,0,0,0-16.657-2.61A114.847,114.847,0,0,0,83.787,20.78C91.246,13.446,98.828,8.349,104.919,8.349ZM86.646,33.334c-2.237-.124-4.6-.124-6.961-.124s-4.724,0-6.961.124c2.237-2.983,4.6-5.718,6.961-8.328C82.047,27.616,84.409,30.475,86.646,33.334ZM50.971,9.219a6.745,6.745,0,0,1,3.6-.87c6.091,0,13.673,4.972,21.132,12.43A130.143,130.143,0,0,0,65.142,33.832a113.841,113.841,0,0,0-16.657,2.61,64.256,64.256,0,0,1-1.367-6.712C45.378,19.164,46.745,11.706,50.971,9.219ZM44.507,74.727c-13.922-3.978-22.25-10.069-22.25-15.662,0-4.848,5.718-9.7,15.787-13.549,1.989-.746,4.226-1.492,6.464-2.113A130.646,130.646,0,0,0,50.6,59.065,118.939,118.939,0,0,0,44.507,74.727ZM47.118,88.4c.373-2.113.87-4.351,1.367-6.712A161.313,161.313,0,0,0,65.142,84.3,114.849,114.849,0,0,0,75.708,97.351c-7.458,7.334-15.041,12.43-21.132,12.43a7.041,7.041,0,0,1-3.6-.87C46.745,106.549,45.378,98.966,47.118,88.4Z" transform="translate(0 0)" fill="#61dafb"/>
  </g>
  <circle id="Ellipse_19" data-name="Ellipse 19" cx="4.5" cy="4.5" r="4.5" transform="translate(22 25.07)" fill="#b43737"/>
  <circle id="Ellipse_20" data-name="Ellipse 20" cx="4.5" cy="4.5" r="4.5" transform="translate(36 25.07)" fill="#f4c23f"/>
  <circle id="Ellipse_21" data-name="Ellipse 21" cx="4.5" cy="4.5" r="4.5" transform="translate(50 25.07)" fill="#3fb437"/>
</svg>
