<svg id="People" xmlns="http://www.w3.org/2000/svg" width="96.737" height="120.921" viewBox="0 0 96.737 120.921">
  <g id="Icon-22">
    <path id="art-tools" d="M84.6,96.737a2.016,2.016,0,0,0-2.015,2.015v4.031a2.015,2.015,0,1,0,4.031,0V98.752A2.016,2.016,0,0,0,84.6,96.737Zm2.015-22.169a2.015,2.015,0,1,0-4.031,0V90.69a2.015,2.015,0,0,0,4.031,0ZM98.706,52.4H10.031A4.035,4.035,0,0,0,6,56.43v8.061a4.035,4.035,0,0,0,4.031,4.031v42.322a10.088,10.088,0,0,0,10.077,10.077H88.629a10.088,10.088,0,0,0,10.077-10.077V74.568a2.015,2.015,0,1,0-4.031,0v36.276a6.053,6.053,0,0,1-6.046,6.046H20.107a6.053,6.053,0,0,1-6.046-6.046V66.506a2.016,2.016,0,0,0-2.015-2.015H10.031V56.43H98.706v8.061h-78.6a2.015,2.015,0,0,0,0,4.031h78.6a4.035,4.035,0,0,0,4.031-4.031V56.43A4.035,4.035,0,0,0,98.706,52.4ZM50.338,33.185V46.353a2.015,2.015,0,1,0,4.031,0V32.246a2.028,2.028,0,0,0-.808-1.614,8,8,0,0,1-3.223-6.447c0-5.071,4.879-13.672,8.061-18.575,3.182,4.9,8.061,13.5,8.061,18.575a8.077,8.077,0,0,1-6.467,7.9,2.015,2.015,0,1,0,.788,3.952,12.113,12.113,0,0,0,9.71-11.856c0-8.608-10.026-22.743-10.452-23.34a2.09,2.09,0,0,0-3.281,0c-.425.6-10.452,14.732-10.452,23.34a11.989,11.989,0,0,0,4.031,9ZM12.046,48.368h4.031a2.015,2.015,0,0,0,0-4.031H14.061V40.307H24.138a2.015,2.015,0,1,0,0-4.031H14.061V32.246h2.015a2.015,2.015,0,1,0,0-4.031H14.061V24.184h2.015a2.015,2.015,0,1,0,0-4.031H14.061V16.123H24.138a2.015,2.015,0,1,0,0-4.031H14.061V4.031H38.246V46.353a2.015,2.015,0,1,0,4.031,0V2.015A2.016,2.016,0,0,0,40.261,0H12.046a2.016,2.016,0,0,0-2.015,2.015V46.353a2.016,2.016,0,0,0,2.015,2.015ZM84.6,26.2V46.353a2.015,2.015,0,1,0,4.031,0V26.2a2.015,2.015,0,0,0-4.031,0ZM96.69,24.184A2.016,2.016,0,0,0,94.675,26.2V46.353a2.015,2.015,0,1,0,4.031,0V26.2a2.016,2.016,0,0,0-2.015-2.015ZM76.537,48.368a2.016,2.016,0,0,0,2.015-2.015V18.717l8.061-12.9,6.441,10.3H84.6a2.015,2.015,0,0,0,0,4.031H96.69A2.015,2.015,0,0,0,98.4,17.07L88.323.947a2.094,2.094,0,0,0-3.418,0L74.828,17.07a2.019,2.019,0,0,0-.306,1.068V46.353a2.016,2.016,0,0,0,2.015,2.015ZM66.46,40.307v6.046a2.015,2.015,0,1,1-4.031,0V40.307a2.015,2.015,0,1,1,4.031,0Z" transform="translate(-6)" fill="#fff2f2" fill-rule="evenodd"/>
  </g>
</svg>
