<svg xmlns="http://www.w3.org/2000/svg" width="270.4" height="270.4" viewBox="0 0 270.4 270.4">
  <g id="ruler" transform="translate(-2.474 58.884) rotate(-16)">
    <rect id="Rectangle_145" data-name="Rectangle 145" width="203.934" height="35.234" transform="translate(24.426 173.315) rotate(-45)" fill="#45d4d9"/>
    <rect id="Rectangle_146" data-name="Rectangle 146" width="14.538" height="35.234" transform="translate(158.321 39.37) rotate(-45)" fill="#2d95b5"/>
    <path id="Path_110" data-name="Path 110" d="M3,3V214.331H214.331ZM38.234,88.042l91.091,91.091H38.234Z" transform="translate(2.644 2.639)" fill="#f74b50"/>
    <path id="Path_111" data-name="Path 111" d="M199.756,214.331,3,17.575V3L214.331,214.331Z" transform="translate(2.644 2.639)" fill="#d13f44"/>
    <path id="Path_112" data-name="Path 112" d="M75.854,84.366h0L50.968,59.48h0L17.884,26.4a3.644,3.644,0,0,0-6.194,2.587v91.091a3.644,3.644,0,0,0,3.644,3.644h91.091a3.644,3.644,0,0,0,2.587-6.194L75.854,84.4ZM43.062,62.03,18.759,86.3V37.727Zm-24.3,34.578L48.2,67.168,67.948,86.953l-29.441,29.4H18.9Zm30.06,19.748,24.3-24.267,24.267,24.267Z" transform="translate(25.617 61.735)" fill="#2c2a3d"/>
    <path id="Path_113" data-name="Path 113" d="M219.561,214.383l-90.654-90.617L196.1,56.65a3.644,3.644,0,0,0,0-5.174L171.174,26.517a3.644,3.644,0,0,0-5.174,0L98.848,93.705,8.231,3.052A3.666,3.666,0,0,0,2,5.639V216.969a3.644,3.644,0,0,0,3.644,3.644H216.974a3.666,3.666,0,0,0,2.587-6.231ZM168.55,34.241l19.785,19.785L177.149,65.212l-5.174-5.174a3.644,3.644,0,1,0-5.138,5.138l5.138,5.174L156.563,85.8l-5.174-5.138a3.646,3.646,0,0,0-5.174,5.138l5.174,5.174L135.94,106.422l-5.174-5.174a3.659,3.659,0,1,0-5.174,5.174l5.174,5.138-7,7.032L104.022,98.843ZM162.32,213.326v-7.287a3.644,3.644,0,1,0-7.287,0v7.287H133.171v-7.287a3.644,3.644,0,1,0-7.287,0v7.287H104.022v-7.287a3.644,3.644,0,0,0-7.287,0v7.287H74.873v-7.287a3.644,3.644,0,0,0-7.287,0v7.287H45.724v-7.287a3.644,3.644,0,0,0-7.287,0v7.287H9.287V180.533h7.287a3.644,3.644,0,1,0,0-7.287H9.287V151.384h7.287a3.644,3.644,0,1,0,0-7.287H9.287V122.235h7.287a3.644,3.644,0,1,0,0-7.287H9.287V93.086h7.287a3.644,3.644,0,0,0,0-7.287H9.287V63.937h7.287a3.644,3.644,0,1,0,0-7.287H9.287V14.42L208.193,213.326Z" transform="translate(0 0)" fill="#2c2a3d"/>
  </g>
</svg>
